# xmcd
# 
# Track frame offsets:
#     150
#     15724
#     26597
#     38373
#     49774
#     64914
#     73684
#     86657
#     98385
#     109378
#     122084
#     133969
#     148141
#     162169
#     174925
#     186759
#     200587
#     212890
#     223219
#     234809
#     247895
#     260373
#     279731
#     292733
#     304591
# 
# Disc length: 4687
# 
# Revision: 3
# Processed by: cddbd v1.5.2PL0 Copyright (c) Steve Scherf et al.
# Submitted via: BonkEnc v1.0.15
# 
DISCID=6a124d19
DTITLE=Various Artist - Les Plus Grands Artistes De Blues [CD 1/4)
DYEAR=2005
DGENRE=Blues
TTITLE0=Johnny Otis - Harlem nocturne
TTITLE1=Jimmy Reed - Ain't that lovin'you baby
TTITLE2=John Lee Hooker - Boom boom
TTITLE3=B.B. King - Catfish blues
TTITLE4=Muddy Waters - Baby please don't go
TTITLE5=Dr John - New Orléans
TTITLE6=Howlin' wolf - I've got a women
TTITLE7=Ray Charles - Sentimental blues
TTITLE8=Clarence Frogman Henry - Ain't got no home
TTITLE9=Charles Brown - Troubles blues
TTITLE10=Jimmy Witherspoon - Trouble in mind
TTITLE11=Memphis Minnie - Me and my chauffeur
TTITLE12=Pee Wee Crayton - Blues after hours
TTITLE13=Sonny Terry - Whoopin the blues
TTITLE14=Robert Johnson - Cross road blues
TTITLE15=Lightnin' Hopkins - Mojo hand
TTITLE16=Various ArtistsJohn Mayal - Lost and gone
TTITLE17=Buddy Guy - First time ! Meet the blues
TTITLE18=J.B. Lenoir - Mama, talk to your daughter
TTITLE19=Memphis Slim - Blues for my baby
TTITLE20=Various Artist - T-Bone Walker - Blues is a women
TTITLE21=Various Artist - Jelly Roll Morton - Dead man blues
TTITLE22=Various Artist - Ivory Joe Hunter - Landlord blues
TTITLE23=Various Artist - Mississippi Fred Mac Dowell - Good morning little school girl
TTITLE24=Various Artist - Bo Didley - I'm a man
EXTD=
EXTT0=
EXTT1=
EXTT2=
EXTT3=
EXTT4=
EXTT5=
EXTT6=
EXTT7=
EXTT8=
EXTT9=
EXTT10=
EXTT11=
EXTT12=
EXTT13=
EXTT14=
EXTT15=
EXTT16=
EXTT17=
EXTT18=
EXTT19=
EXTT20=
EXTT21=
EXTT22=
EXTT23=
EXTT24=
PLAYORDER=
